HIERARCHY
ROOT joint_Root
{
	OFFSET 0.0 0.0 0.0
	CHANNELS 6 Xposition Yposition Zposition Zrotation Xrotation Yrotation 
	JOINT Hips
	{
		OFFSET -0.726466 93.3139 -2.00062
		CHANNELS 6 Xposition Yposition Zposition Zrotation Xrotation Yrotation 
		JOINT Spine
		{
			OFFSET 15.7357 0.0 0.0
			CHANNELS 6 Xposition Yposition Zposition Zrotation Xrotation Yrotation 
			JOINT Chest
			{
				OFFSET 8.98455 -0.406207 0.0
				CHANNELS 6 Xposition Yposition Zposition Zrotation Xrotation Yrotation 
				JOINT Neck
				{
					OFFSET 16.3773 0.0 0.0
					CHANNELS 6 Xposition Yposition Zposition Zrotation Xrotation Yrotation 
					JOINT Head
					{
						OFFSET 6.45672 0.0 0.0
						CHANNELS 6 Xposition Yposition Zposition Zrotation Xrotation Yrotation 
						End Site
						{
							OFFSET 0.0 0.0 0.0
						}
					}
				}
				JOINT Shoulder_L
				{
					OFFSET 12.9942 -0.242716 4.98039
					CHANNELS 6 Xposition Yposition Zposition Zrotation Xrotation Yrotation 
					JOINT UpperArm_L
					{
						OFFSET 5.34809 0.0 0.0
						CHANNELS 6 Xposition Yposition Zposition Zrotation Xrotation Yrotation 
						JOINT LowerArm_L
						{
							OFFSET 24.3286 1.87007e-05 0.0
							CHANNELS 6 Xposition Yposition Zposition Zrotation Xrotation Yrotation 
							JOINT Hand_L
							{
								OFFSET 22.2916 0.0 0.0
								CHANNELS 6 Xposition Yposition Zposition Zrotation Xrotation Yrotation 
								End Site
								{
									OFFSET 0.0 0.0 0.0
								}
							}
						}
					}
				}
				JOINT Shoulder_R
				{
					OFFSET 12.9945 -0.242716 -4.98039
					CHANNELS 6 Xposition Yposition Zposition Zrotation Xrotation Yrotation 
					JOINT UpperArm_R
					{
						OFFSET -5.34813 0.0 0.0
						CHANNELS 6 Xposition Yposition Zposition Zrotation Xrotation Yrotation 
						JOINT LowerArm_R
						{
							OFFSET -24.3289 0.000322201 0.0
							CHANNELS 6 Xposition Yposition Zposition Zrotation Xrotation Yrotation 
							JOINT Hand_R
							{
								OFFSET -22.2915 -0.000108084 0.0
								CHANNELS 6 Xposition Yposition Zposition Zrotation Xrotation Yrotation 
								End Site
								{
									OFFSET 0.0 0.0 0.0
								}
							}
						}
					}
				}
			}
		}
		JOINT UpperLeg_L
		{
			OFFSET -2.19248 -6.46944 0.0
			CHANNELS 6 Xposition Yposition Zposition Zrotation Xrotation Yrotation 
			JOINT LowerLeg_L
			{
				OFFSET 39.0811 0.0 -1.23785e-05
				CHANNELS 6 Xposition Yposition Zposition Zrotation Xrotation Yrotation 
				JOINT Foot_L
				{
					OFFSET 40.9854 0.0 -1.26872e-05
					CHANNELS 6 Xposition Yposition Zposition Zrotation Xrotation Yrotation 
					JOINT Toes_L
					{
						OFFSET 11.7543 0.0 0.0
						CHANNELS 6 Xposition Yposition Zposition Zrotation Xrotation Yrotation 
						End Site
						{
							OFFSET 0.0 0.0 0.0
						}
					}
				}
			}
		}
		JOINT UpperLeg_R
		{
			OFFSET -2.19251 6.46944 0.0
			CHANNELS 6 Xposition Yposition Zposition Zrotation Xrotation Yrotation 
			JOINT LowerLeg_R
			{
				OFFSET -39.0811 -0.00228153 -0.0401928
				CHANNELS 6 Xposition Yposition Zposition Zrotation Xrotation Yrotation 
				JOINT Foot_R
				{
					OFFSET -40.9854 0.0 0.0
					CHANNELS 6 Xposition Yposition Zposition Zrotation Xrotation Yrotation 
					JOINT Toes_R
					{
						OFFSET -11.7543 0.0 0.0
						CHANNELS 6 Xposition Yposition Zposition Zrotation Xrotation Yrotation 
						End Site
						{
							OFFSET 0.0 0.0 0.0
						}
					}
				}
			}
		}
	}
}
MOTION
Frames:	6
Frame Time:	0.0333333
0.000000 0.000000 0.000000 0.000000 0.000000 -0.000000 -0.526755 92.276700 -1.093930 88.053300 -1.143800 4.961460 15.735700 0.000005 -0.000001 80.636000 86.303300 -80.162300 8.984550 -0.406207 -0.000000 -0.465771 -1.236700 0.941860 16.377300 -0.000001 -0.000001 4.032000 -2.084660 0.578886 6.456720 -0.000001 -0.000000 5.858720 -2.261610 -1.944300 12.994200 -0.242716 4.980390 -86.764500 -8.589050 -69.267200 5.348090 -0.000007 -0.000001 -83.792100 -36.628600 -90.533700 24.328600 0.000019 0.000005 7.175590 0.696685 -84.483500 22.291600 -0.000001 0.000005 20.619900 5.585960 -10.536300 12.994500 -0.242716 -4.980390 91.265200 -3.522530 -70.228200 -5.348130 -0.000001 -0.000004 -78.926600 -33.562100 -99.275300 -24.328900 0.000322 -0.000009 14.288400 2.571100 -80.012200 -22.291500 -0.000108 -0.000004 21.402000 5.380870 -2.325730 -2.192480 -6.469440 -0.000000 -175.602000 -6.664260 -1.786960 39.081100 -0.000007 -0.000012 -0.099125 0.232570 23.084600 40.985400 -0.000006 -0.000013 -0.199574 2.681470 -66.512900 11.754300 -0.000000 0.000003 -0.000039 -0.000456 -16.595300 -2.192510 6.469440 -0.000001 179.351000 14.917000 -178.618000 -39.081100 -0.002282 -0.040193 0.002814 0.001437 19.483500 -40.985400 0.000008 0.000006 4.436590 6.281850 -66.391100 -11.754300 -0.000006 -0.000006 -0.006414 -0.074547 -19.607400
0.000000 0.000000 0.000000 0.000000 0.000000 -0.000000 -0.517469 92.284600 -1.152670 88.057300 -1.095790 4.946010 15.735700 0.000005 -0.000001 80.274900 86.292400 -79.796900 8.984550 -0.406207 -0.000000 -0.451749 -1.286580 0.950313 16.377300 -0.000001 -0.000001 4.026890 -2.137150 0.547015 6.456720 -0.000001 -0.000000 5.814310 -2.341510 -1.720080 12.994200 -0.242716 4.980390 -86.737800 -8.616500 -69.171100 5.348090 -0.000007 -0.000001 -83.575400 -36.660900 -90.413000 24.328600 0.000019 0.000005 7.092180 0.694196 -84.438200 22.291600 -0.000001 0.000005 20.662800 5.586980 -10.593100 12.994500 -0.242716 -4.980390 91.272500 -3.523000 -70.126300 -5.348130 -0.000001 -0.000004 -78.441600 -33.593000 -99.001300 -24.328900 0.000322 -0.000009 14.119700 2.531000 -80.044700 -22.291500 -0.000108 -0.000004 21.443000 5.376200 -2.179330 -2.192480 -6.469440 -0.000000 -175.609000 -6.676620 -1.846680 39.081100 -0.000007 -0.000012 -0.100047 0.234924 23.067600 40.985400 -0.000006 -0.000013 -0.187391 2.722240 -66.454500 11.754300 -0.000000 0.000003 -0.000041 -0.000471 -16.595900 -2.192510 6.469440 -0.000001 179.349000 14.929400 -178.668000 -39.081100 -0.002282 -0.040193 0.001312 0.005690 19.455900 -40.985400 0.000008 0.000006 4.340680 6.305820 -66.318100 -11.754300 -0.000006 -0.000006 -0.006265 -0.073224 -19.553400
0.000000 0.000000 0.000000 0.000000 0.000000 -0.000000 -0.505160 92.291400 -1.203580 88.064200 -1.087770 4.921200 15.735700 0.000005 -0.000001 80.314300 86.280400 -79.844500 8.984550 -0.406207 -0.000000 -0.427390 -1.284890 0.934199 16.377300 -0.000001 -0.000001 4.019320 -2.290870 0.588836 6.456720 -0.000001 -0.000000 5.782320 -2.516860 -1.477460 12.994200 -0.242716 4.980390 -86.718100 -8.647230 -69.123700 5.348090 -0.000007 -0.000001 -83.375800 -36.765500 -90.401400 24.328600 0.000019 0.000005 7.072490 0.694428 -84.420800 22.291600 -0.000001 0.000005 20.597800 5.586400 -10.560400 12.994500 -0.242716 -4.980390 91.272800 -3.500160 -70.001900 -5.348130 -0.000001 -0.000004 -77.977300 -33.677200 -98.736400 -24.328900 0.000322 -0.000009 14.261600 2.526250 -80.164000 -22.291500 -0.000108 -0.000004 21.253800 5.371220 -2.024330 -2.192480 -6.469440 -0.000000 -175.633000 -6.695250 -1.900760 39.081100 -0.000007 -0.000012 -0.099240 0.233247 23.048500 40.985400 -0.000006 -0.000013 -0.168889 2.742860 -66.408200 11.754300 -0.000000 0.000003 -0.000038 -0.000444 -16.594900 -2.192510 6.469440 -0.000001 179.364000 14.900700 -178.731000 -39.081100 -0.002282 -0.040193 0.003011 0.000882 19.461200 -40.985400 0.000008 0.000006 4.411610 6.235060 -66.295700 -11.754300 -0.000006 -0.000006 -0.006436 -0.074744 -19.615400
0.000000 0.000000 0.000000 0.000000 0.000000 -0.000000 -0.498812 92.290800 -1.254810 88.078900 -1.031750 4.962110 15.735700 0.000005 -0.000001 80.201900 86.244600 -79.734600 8.984550 -0.406207 -0.000000 -0.359099 -1.311020 0.930019 16.377300 -0.000001 -0.000001 4.028470 -2.387050 0.661909 6.456720 -0.000001 -0.000000 5.782650 -2.680800 -1.256240 12.994200 -0.242716 4.980390 -86.696900 -8.667530 -69.044500 5.348090 -0.000007 -0.000001 -83.241000 -36.784100 -90.413900 24.328600 0.000019 0.000005 6.931500 0.678940 -84.433100 22.291600 -0.000001 0.000005 20.649100 5.587560 -10.625300 12.994500 -0.242716 -4.980390 91.277200 -3.498490 -69.929700 -5.348130 -0.000001 -0.000004 -77.589500 -33.826400 -98.519200 -24.328900 0.000322 -0.000009 14.240700 2.476320 -80.340100 -22.291500 -0.000108 -0.000004 20.963300 5.368460 -1.938810 -2.192480 -6.469440 -0.000000 -175.663000 -6.638440 -1.915100 39.081100 -0.000007 -0.000012 -0.096782 0.227188 23.073900 40.985400 -0.000006 -0.000013 -0.155868 2.743670 -66.384300 11.754300 -0.000000 0.000003 -0.000036 -0.000429 -16.594300 -2.192510 6.469440 -0.000001 179.335000 14.917400 -178.746000 -39.081100 -0.002282 -0.040193 0.000561 0.007795 19.507300 -40.985400 0.000008 0.000006 4.354310 6.215380 -66.275600 -11.754300 -0.000006 -0.000006 -0.006183 -0.072485 -19.523300
0.000000 0.000000 0.000000 0.000000 0.000000 -0.000000 -0.491252 92.296800 -1.304210 88.096300 -1.033380 5.006730 15.735700 0.000005 -0.000001 80.360100 86.207300 -79.898000 8.984550 -0.406207 -0.000000 -0.282165 -1.302370 0.920400 16.377300 -0.000001 -0.000001 4.078180 -2.453020 0.730075 6.456720 -0.000001 -0.000000 5.775900 -2.764980 -1.054420 12.994200 -0.242716 4.980390 -86.682900 -8.681180 -68.993100 5.348090 -0.000007 -0.000001 -83.129100 -36.837800 -90.439400 24.328600 0.000019 0.000005 6.952810 0.671482 -84.510800 22.291600 -0.000001 0.000005 20.745000 5.586630 -10.573200 12.994500 -0.242716 -4.980390 91.266600 -3.459130 -69.874700 -5.348130 -0.000001 -0.000004 -77.232700 -33.951700 -98.371100 -24.328900 0.000322 -0.000009 14.214600 2.447310 -80.433200 -22.291500 -0.000108 -0.000004 20.754100 5.364750 -1.824980 -2.192480 -6.469440 -0.000000 -175.679000 -6.647540 -1.890180 39.081100 -0.000007 -0.000012 -0.097285 0.228693 23.044700 40.985400 -0.000006 -0.000013 -0.149625 2.755180 -66.335900 11.754300 -0.000000 0.000003 -0.000033 -0.000390 -16.592800 -2.192510 6.469440 -0.000001 179.317000 14.900900 -178.745000 -39.081100 -0.002282 -0.040193 0.002056 0.003571 19.520000 -40.985400 0.000008 0.000006 4.379550 6.203790 -66.248800 -11.754300 -0.000006 -0.000006 -0.006319 -0.073703 -19.573000
0.000000 0.000000 0.000000 0.000000 0.000000 -0.000000 -0.492239 92.306000 -1.379020 88.073600 -0.988773 4.985000 15.735700 0.000005 -0.000001 80.301000 86.182700 -79.832300 8.984550 -0.406207 -0.000000 -0.234860 -1.318640 0.934056 16.377300 -0.000001 -0.000001 4.069080 -2.472700 0.749327 6.456720 -0.000001 -0.000000 5.866850 -2.787800 -0.882910 12.994200 -0.242716 4.980390 -86.674200 -8.692790 -68.968200 5.348090 -0.000007 -0.000001 -82.975500 -36.919500 -90.375500 24.328600 0.000019 0.000005 7.005980 0.660903 -84.637900 22.291600 -0.000001 0.000005 20.847000 5.587080 -10.598100 12.994500 -0.242716 -4.980390 91.259100 -3.437470 -69.869100 -5.348130 -0.000001 -0.000004 -76.948000 -34.086600 -98.191500 -24.328900 0.000322 -0.000009 14.124200 2.403160 -80.541100 -22.291500 -0.000108 -0.000004 20.692200 5.363930 -1.799480 -2.192480 -6.469440 -0.000000 -175.661000 -6.626330 -1.979830 39.081100 -0.000007 -0.000012 -0.098113 0.230607 23.047700 40.985400 -0.000006 -0.000013 -0.146621 2.777730 -66.273700 11.754300 -0.000000 0.000003 -0.000040 -0.000466 -16.595700 -2.192510 6.469440 -0.000001 179.376000 14.942500 -178.815000 -39.081100 -0.002282 -0.040193 0.005025 -0.004807 19.502300 -40.985400 0.000008 0.000006 4.479650 6.167540 -66.200200 -11.754300 -0.000006 -0.000006 -0.006374 -0.074194 -19.593000
